<svg xmlns="http://www.w3.org/2000/svg" xmlns:xlink="http://www.w3.org/1999/xlink" width="500" zoomAndPan="magnify" viewBox="0 0 375 374.999991" height="500" preserveAspectRatio="xMidYMid meet" version="1.0"><defs><g/><clipPath id="a4317d43ab"><path d="M 48.375 13.746094 L 330.523438 13.746094 L 330.523438 365 L 48.375 365 Z M 48.375 13.746094 " clip-rule="nonzero"/></clipPath><clipPath id="c5e7b927d1"><path d="M 52.875 13.746094 L 326.023438 13.746094 C 328.507812 13.746094 330.523438 15.757812 330.523438 18.246094 L 330.523438 359.992188 C 330.523438 362.476562 328.507812 364.492188 326.023438 364.492188 L 52.875 364.492188 C 50.390625 364.492188 48.375 362.476562 48.375 359.992188 L 48.375 18.246094 C 48.375 15.757812 50.390625 13.746094 52.875 13.746094 Z M 52.875 13.746094 " clip-rule="nonzero"/></clipPath></defs><g clip-path="url(#a4317d43ab)"><g clip-path="url(#c5e7b927d1)"><path fill="#6d412d" d="M 48.375 13.746094 L 330.523438 13.746094 L 330.523438 364.226562 L 48.375 364.226562 Z M 48.375 13.746094 " fill-opacity="1" fill-rule="nonzero"/></g></g><g fill="#ffffff" fill-opacity="1"><g transform="translate(74.889778, 326.934268)"><g><path d="M 21.078125 0 L 21.078125 -277.609375 L 82.0625 -277.609375 L 97.765625 -138.03125 L 109.046875 -23.765625 L 116.078125 -23.765625 L 127.265625 -138.03125 L 142.96875 -277.609375 L 204.046875 -277.609375 L 204.046875 0 L 198.5 0 L 198.5 -273.09375 L 147.734375 -273.09375 L 132.046875 -134.03125 L 120.5 -19.265625 L 104.625 -19.265625 L 93 -134.03125 L 77.296875 -273.09375 L 26.546875 -273.09375 L 26.546875 0 Z M 43.46875 0 L 43.46875 -117.640625 L 40.859375 -259.484375 L 63.5 -259.484375 L 78.6875 -119.375 L 90.140625 -5.640625 L 134.90625 -5.640625 L 146.359375 -119.375 L 161.625 -259.484375 L 184.265625 -259.484375 L 181.65625 -117.640625 L 181.65625 0 L 176.203125 0 L 176.203125 -114.515625 L 178.890625 -254.96875 L 166.046875 -254.96875 L 151.125 -114.609375 L 140.109375 -1.125 L 85.015625 -1.125 L 74 -114.609375 L 59.171875 -254.96875 L 46.234375 -254.96875 L 48.921875 -114.515625 L 48.921875 0 Z M 32.09375 0 L 32.09375 -124.578125 L 30.796875 -268.59375 L 72.703125 -268.59375 L 88.40625 -129.78125 L 99.6875 -14.75 L 125.359375 -14.75 L 136.71875 -129.78125 L 152.421875 -268.59375 L 194.234375 -268.59375 L 193.03125 -124.578125 L 193.03125 0 L 187.5625 0 L 187.5625 -120.59375 L 189.03125 -263.984375 L 157.28125 -263.984375 L 141.578125 -123.71875 L 130.125 -10.15625 L 95 -10.15625 L 83.546875 -123.71875 L 67.75 -263.984375 L 36.09375 -263.984375 L 37.5625 -120.59375 L 37.5625 0 Z M 32.09375 0 "/></g></g></g></svg>