<svg xmlns="http://www.w3.org/2000/svg" xmlns:xlink="http://www.w3.org/1999/xlink" width="500" zoomAndPan="magnify" viewBox="0 0 375 374.999991" height="500" preserveAspectRatio="xMidYMid meet" version="1.0"><defs><g/><clipPath id="96a20daaf1"><path d="M 1.703125 4.148438 L 372.203125 4.148438 L 372.203125 374.648438 L 1.703125 374.648438 Z M 1.703125 4.148438 " clip-rule="nonzero"/></clipPath></defs><rect x="-37.5" width="450" fill="#ffffff" y="-37.499999" height="449.999989" fill-opacity="1"/><rect x="-37.5" width="450" fill="#ffffff" y="-37.499999" height="449.999989" fill-opacity="1"/><g clip-path="url(#96a20daaf1)"><path fill="#ffffff" d="M 187.128906 375 C 84.6875 375 1.703125 291.441406 1.703125 189.574219 C 1.703125 87.703125 84.6875 4.148438 187.128906 4.148438 C 289.570312 4.148438 372.554688 87.132812 372.554688 189.574219 C 372.554688 292.015625 288.996094 375 187.128906 375 Z M 187.128906 15.59375 C 90.980469 15.59375 13.148438 93.425781 13.148438 189.574219 C 13.148438 285.71875 90.980469 363.554688 187.128906 363.554688 C 283.273438 363.554688 361.109375 285.71875 361.109375 189.574219 C 361.105469 93.425781 282.703125 15.59375 187.128906 15.59375 Z M 187.128906 15.59375 " fill-opacity="1" fill-rule="nonzero"/></g><g fill="#ffffff" fill-opacity="1"><g transform="translate(84.688456, 315.975314)"><g><path d="M 19.25 0 L 19.25 -253.46875 L 74.9375 -253.46875 L 89.265625 -126.015625 L 99.5625 -21.703125 L 105.984375 -21.703125 L 116.203125 -126.015625 L 130.53125 -253.46875 L 186.296875 -253.46875 L 186.296875 0 L 181.21875 0 L 181.21875 -249.34375 L 134.890625 -249.34375 L 120.546875 -122.375 L 110.015625 -17.578125 L 95.53125 -17.578125 L 84.90625 -122.375 L 70.578125 -249.34375 L 24.234375 -249.34375 L 24.234375 0 Z M 39.6875 0 L 39.6875 -107.40625 L 37.3125 -236.90625 L 57.984375 -236.90625 L 71.84375 -108.984375 L 82.296875 -5.15625 L 123.171875 -5.15625 L 133.625 -108.984375 L 147.5625 -236.90625 L 168.234375 -236.90625 L 165.859375 -107.40625 L 165.859375 0 L 160.875 0 L 160.875 -104.546875 L 163.328125 -232.796875 L 151.609375 -232.796875 L 137.984375 -104.625 L 127.921875 -1.03125 L 77.625 -1.03125 L 67.5625 -104.625 L 54.015625 -232.796875 L 42.21875 -232.796875 L 44.671875 -104.546875 L 44.671875 0 Z M 29.3125 0 L 29.3125 -113.734375 L 28.125 -245.21875 L 66.375 -245.21875 L 80.71875 -118.5 L 91.015625 -13.46875 L 114.453125 -13.46875 L 124.828125 -118.5 L 139.171875 -245.21875 L 177.34375 -245.21875 L 176.234375 -113.734375 L 176.234375 0 L 171.25 0 L 171.25 -110.09375 L 172.59375 -241.03125 L 143.609375 -241.03125 L 129.265625 -112.953125 L 118.8125 -9.265625 L 86.734375 -9.265625 L 76.28125 -112.953125 L 61.859375 -241.03125 L 32.953125 -241.03125 L 34.296875 -110.09375 L 34.296875 0 Z M 29.3125 0 "/></g></g></g></svg>